# xmcd
#
# Track frame offsets: 
#        150
#        13313
#        40911
#        54288
#        76272
#        91606
#        108085
#        122762
#        143914
#        158719
#        174401
#        192332
#        209209
#        219496
#        234583
#        249532
#        268170
#        283800
#        302298
#        321146
#        331107
#
# Disc length: 4692 seconds
#
# Revision: 0
# Processed by: cddbd v1.5.2PL0 Copyright (c) Steve Scherf et al.
# Submitted via: ExactAudioCopy v0.99pb5
#
DISCID=24125215
DTITLE=Various Artist - The Blues Box [CD 1 of 7)
DYEAR=2009
DGENRE=Blues
TTITLE0=Lonnie Johnson - Tomorrow Night
TTITLE1=Lonnie Johnson - Clementine Blues
TTITLE2=Lonnie Johnson - See See Rider
TTITLE3=Lonnie Johnson - Raining On The Cold, Cold Ground
TTITLE4=Lonnie Johnson - Jelly, Jelly
TTITLE5=Lonnie Johnson - Too Late To Cry Baby
TTITLE6=Lonnie Johnson - Call Me Darling
TTITLE7=Lonnie Johnson - Why Did You Go
TTITLE8=Lonnie Johnson - Swinging With Lonnie
TTITLE9=Lonnie Johnson - Please Help Me
TTITLE10=Lonnie Johnson - My Babys Gone
TTITLE11=Lonnie Johnson - You Don't Know What Love Is
TTITLE12=Lonnie Johnson - Don't Cry Baby
TTITLE13=Otis Spann - Good Morning Mr. Blues
TTITLE14=Otis Spann - Riverside Blues
TTITLE15=Otis Spann - Jelly Roll Baker
TTITLE16=Otis Spann - Trouble In Mind
TTITLE17=Otis Spann - Worried Life Blues
TTITLE18=Otis Spann - T.B. Blues
TTITLE19=Otis Spann - Spann's Boogie
TTITLE20=Otis Spann - Goin' Down Slow
EXTD=
EXTT0=
EXTT1=
EXTT2=
EXTT3=
EXTT4=
EXTT5=
EXTT6=
EXTT7=
EXTT8=
EXTT9=
EXTT10=
EXTT11=
EXTT12=
EXTT13=
EXTT14=
EXTT15=
EXTT16=
EXTT17=
EXTT18=
EXTT19=
EXTT20=
PLAYORDER=
